<?xml version="1.0" encoding="iso-8859-1"?>
<!-- Generator: Adobe Illustrator 19.0.0, SVG Export Plug-In . SVG Version: 6.00 Build 0)  -->
<svg xmlns="http://www.w3.org/2000/svg" xmlns:xlink="http://www.w3.org/1999/xlink" version="1.1" id="Capa_1" x="0px" y="0px" viewBox="0 0 511.98 511.98" style="enable-background:new 0 0 511.98 511.98;" xml:space="preserve" width="512px" height="512px">
<g>
	<g>
		<g>
			<path d="M340.263,304.41c-10.002-9.983-26.198-9.983-36.2,0l-42.65,42.65c-39.243-24.248-72.298-57.303-96.546-96.546     l42.65-42.65c9.983-10.002,9.983-26.198,0-36.2l-60.342-60.342c-10.002-9.983-26.198-9.983-36.2,0l-42.204,42.204     c-16.019,15.757-21.693,39.247-14.633,60.579c1.421,4.275,2.917,8.525,4.483,12.713c19.153,51.862,49.373,98.929,88.559,137.929     c38.993,39.18,86.052,69.397,137.904,88.55c4.217,1.571,8.463,3.068,12.738,4.492c5.968,1.991,12.217,3.007,18.508,3.008     c15.812-0.051,30.952-6.4,42.071-17.642l42.204-42.204c9.983-10.002,9.983-26.198,0-36.2L340.263,304.41z M123.042,123.389     c3.334-3.328,8.733-3.328,12.067,0l60.342,60.342c3.325,3.335,3.325,8.732,0,12.067l-24.137,24.137l-72.408-72.408     L123.042,123.389z M346.334,431.089c-11.273,11.306-27.919,15.362-43.129,10.508v0c-4.075-1.358-8.132-2.792-12.171-4.3     c-49.553-18.3-94.525-47.174-131.788-84.616c-37.448-37.271-66.327-82.253-84.629-131.817c-1.504-4.017-2.933-8.064-4.288-12.142     c-4.859-15.21-0.803-31.859,10.508-43.129l6-6l72.408,72.408l-11.162,11.163c-2.746,2.746-3.291,7.001-1.325,10.35     c27.096,46.124,65.53,84.558,111.654,111.654c3.347,1.975,7.608,1.43,10.35-1.325l11.163-11.162l72.408,72.408L346.334,431.089z      M388.538,388.885L388.538,388.885l-24.138,24.137l-72.408-72.408l24.137-24.137c3.335-3.325,8.732-3.325,12.067,0l60.342,60.342     C391.863,380.153,391.863,385.55,388.538,388.885z" fill="#FFFFFF"/>
			<path d="M511.971,68.222c-0.015-14.132-11.468-25.585-25.6-25.6h-88.945C299.632-22.205,170.284-12.245,83.566,66.79     S-25.033,273.697,30.471,377.069c55.503,103.372,174.18,155.775,287.966,127.154s193.546-130.937,193.535-248.267     c0-2.247-0.025-4.489-0.19-6.658c0.047-0.63,0.19-1.233,0.19-1.876V68.222z M255.971,494.889     c-98.811,0.03-187.447-60.765-223.002-152.957S22.275,145.172,95.518,78.847S275.275-1.876,363.499,42.622H255.971     c-14.132,0.015-25.585,11.468-25.6,25.6v179.2c0.015,14.132,11.468,25.585,25.6,25.6h128v51.2c0,3.36,1.971,6.407,5.036,7.784     c3.065,1.377,6.652,0.827,9.164-1.405l64.817-57.579h23.383c2.712-0.035,5.401-0.506,7.963-1.395     C485.952,397.149,381.774,494.728,255.971,494.889z M494.905,247.422c-0.006,4.71-3.823,8.527-8.533,8.533h-26.625     c-0.419,0.051-0.833,0.134-1.238,0.25c-1.238,0.048-2.425,0.503-3.378,1.294c-0.365,0.177-0.716,0.381-1.051,0.61l-53.042,47.117     v-40.738c0-4.713-3.821-8.533-8.533-8.533H255.971c-4.71-0.006-8.527-3.823-8.533-8.533v-179.2     c0.006-4.71,3.823-8.527,8.533-8.533h230.4c4.71,0.006,8.527,3.823,8.533,8.533V247.422z" fill="#FFFFFF"/>
			<path d="M294.372,127.956c-16.495,0-29.867,13.372-29.867,29.867c0.02,16.487,13.38,29.847,29.867,29.867     c16.495,0,29.867-13.372,29.867-29.867C324.238,141.327,310.866,127.956,294.372,127.956z M294.372,170.622     c-7.069,0-12.8-5.731-12.8-12.8c0.008-7.066,5.734-12.792,12.8-12.8c7.069,0,12.8,5.731,12.8,12.8     C307.172,164.891,301.441,170.622,294.372,170.622z" fill="#FFFFFF"/>
			<path d="M371.172,127.956c-16.495,0-29.867,13.372-29.867,29.867c0.02,16.487,13.38,29.847,29.867,29.867     c16.495,0,29.867-13.372,29.867-29.867C401.038,141.327,387.666,127.956,371.172,127.956z M371.172,170.622     c-7.069,0-12.8-5.731-12.8-12.8c0.008-7.066,5.734-12.792,12.8-12.8c7.069,0,12.8,5.731,12.8,12.8     C383.971,164.891,378.241,170.622,371.172,170.622z" fill="#FFFFFF"/>
			<path d="M447.971,127.956c-16.495,0-29.867,13.372-29.867,29.867c0.02,16.487,13.38,29.847,29.867,29.867     c16.495,0,29.867-13.372,29.867-29.867C477.838,141.327,464.466,127.956,447.971,127.956z M447.971,170.622     c-7.069,0-12.8-5.731-12.8-12.8c0.008-7.066,5.734-12.792,12.8-12.8c7.069,0,12.8,5.731,12.8,12.8     C460.772,164.891,455.041,170.622,447.971,170.622z" fill="#FFFFFF"/>
		</g>
	</g>
</g>
<g>
</g>
<g>
</g>
<g>
</g>
<g>
</g>
<g>
</g>
<g>
</g>
<g>
</g>
<g>
</g>
<g>
</g>
<g>
</g>
<g>
</g>
<g>
</g>
<g>
</g>
<g>
</g>
<g>
</g>
</svg>
